HIERARCHY
ROOT Hips
{
	OFFSET 0.000000 0.000000 0.000000
	CHANNELS 6 Xposition Yposition Zposition Xrotation Yrotation Zrotation
	JOINT LeftUpLeg_virtual
	{
		OFFSET 0.000000 0.000000 0.000000
		CHANNELS 3 Xrotation Yrotation Zrotation
		JOINT LeftUpLeg
		{
			OFFSET 13.026900 -6.336304 -1.092800
			CHANNELS 3 Xrotation Yrotation Zrotation
			JOINT LeftLeg
			{
				OFFSET 0.524474 -46.096886 9.782700
				CHANNELS 3 Xrotation Yrotation Zrotation
				JOINT LeftFoot
				{
					OFFSET -0.524474 -53.427422 -12.948200
					CHANNELS 3 Xrotation Yrotation Zrotation
					JOINT LeftToeBase
					{
						OFFSET 0.192200 -14.009700 16.364100
						CHANNELS 3 Xrotation Yrotation Zrotation
						JOINT LeftToe_End
						{
							OFFSET -1.784700 -0.561700 9.474800
							CHANNELS 3 Xrotation Yrotation Zrotation
							End Site
							{
								OFFSET 0 0 0
							}
						}
					}
				}
			}
		}
	}
	JOINT RightUpLeg_virtual
	{
		OFFSET 0.000000 0.000000 0.000000
		CHANNELS 3 Xrotation Yrotation Zrotation
		JOINT RightUpLeg
		{
			OFFSET -12.883000 -6.336304 -1.092800
			CHANNELS 3 Xrotation Yrotation Zrotation
			JOINT RightLeg
			{
				OFFSET -0.524587 -46.096825 9.782800
				CHANNELS 3 Xrotation Yrotation Zrotation
				JOINT RightFoot
				{
					OFFSET 0.524587 -53.427383 -12.948300
					CHANNELS 3 Xrotation Yrotation Zrotation
					JOINT RightToeBase
					{
						OFFSET -0.192200 -14.009700 16.364100
						CHANNELS 3 Xrotation Yrotation Zrotation
						JOINT RightToe_End
						{
							OFFSET 1.784700 -0.561700 9.474800
							CHANNELS 3 Xrotation Yrotation Zrotation
							End Site
							{
								OFFSET 0 0 0
							}
						}
					}
				}
			}
		}
	}
	JOINT Spine_virtual
	{
		OFFSET 0.000000 0.000000 0.000000
		CHANNELS 3 Xrotation Yrotation Zrotation
		JOINT Spine
		{
			OFFSET 0.072000 7.257294 -0.789700
			CHANNELS 3 Xrotation Yrotation Zrotation
			JOINT Spine1
			{
				OFFSET 0.000000 12.508769 -0.658067
				CHANNELS 3 Xrotation Yrotation Zrotation
				JOINT Spine1_split
				{
					OFFSET 0.000000 12.508769 -0.658067
					CHANNELS 3 Xrotation Yrotation Zrotation
					JOINT Spine2
					{
						OFFSET 0.000000 12.508769 -0.658067
						CHANNELS 3 Xrotation Yrotation Zrotation
						JOINT Neck_virtual
						{
							OFFSET 0.000000 0.000000 0.000000
							CHANNELS 3 Xrotation Yrotation Zrotation
							JOINT Neck
							{
								OFFSET 0.000000 14.033295 7.520400
								CHANNELS 3 Xrotation Yrotation Zrotation
								JOINT Head
								{
									OFFSET 0.000000 8.198502 5.703100
									CHANNELS 3 Xrotation Yrotation Zrotation
									JOINT HeadTop_End
									{
										OFFSET 0.000000 17.760803 13.332701
										CHANNELS 3 Xrotation Yrotation Zrotation
										End Site
										{
											OFFSET 0 0 0
										}
									}
								}
							}
						}
						JOINT LeftShoulder_virtual
						{
							OFFSET 0.000000 0.000000 0.000000
							CHANNELS 3 Xrotation Yrotation Zrotation
							JOINT LeftShoulder
							{
								OFFSET 6.292450 5.785301 -0.669000
								CHANNELS 3 Xrotation Yrotation Zrotation
								JOINT LeftShoulder_split
								{
									OFFSET 6.292450 5.785301 -0.669000
									CHANNELS 3 Xrotation Yrotation Zrotation
									JOINT LeftArm
									{
										OFFSET 13.907140 -6.093903 1.965100
										CHANNELS 3 Xrotation Yrotation Zrotation
										JOINT LeftForeArm
										{
											OFFSET 34.140198 0.000000 0.000000
											CHANNELS 3 Xrotation Yrotation Zrotation
											JOINT LeftHand
											{
												OFFSET 40.960209 0.000000 0.000000
												CHANNELS 3 Xrotation Yrotation Zrotation
												End Site
												{
													OFFSET 0 0 0
												}
											}
										}
									}
								}
							}
						}
						JOINT RightShoulder_virtual
						{
							OFFSET 0.000000 0.000000 0.000000
							CHANNELS 3 Xrotation Yrotation Zrotation
							JOINT RightShoulder
							{
								OFFSET -6.292450 5.785301 -0.669000
								CHANNELS 3 Xrotation Yrotation Zrotation
								JOINT RightShoulder_split
								{
									OFFSET -6.292450 5.785301 -0.669000
									CHANNELS 3 Xrotation Yrotation Zrotation
									JOINT RightArm
									{
										OFFSET -13.907140 -6.093903 1.965100
										CHANNELS 3 Xrotation Yrotation Zrotation
										JOINT RightForeArm
										{
											OFFSET -34.140198 0.000000 0.000000
											CHANNELS 3 Xrotation Yrotation Zrotation
											JOINT RightHand
											{
												OFFSET -40.960209 0.000000 0.000000
												CHANNELS 3 Xrotation Yrotation Zrotation
												End Site
												{
													OFFSET 0 0 0
												}
											}
										}
									}
								}
							}
						}
					}
				}
			}
		}
	}
}
MOTION
Frames: 6
Frame Time: 0.03333333
5.677824 97.408669 -13.695621 0.000000 0.000000 0.000000 44.662798 3.355982 -3.373764 -88.941173 4.372321 18.724880 40.886496 11.027894 -2.771726 5.449587 14.335232 -6.901123 1.830696 0.866527 -1.332677 0.000000 0.000000 0.000000 45.006459 3.673519 -1.820200 -48.196776 11.075218 -8.677515 63.088750 5.433967 -4.225595 9.437769 -0.116869 10.480774 -9.990501 0.831190 0.014332 0.000000 0.000000 0.000000 48.417381 -3.147809 1.031425 12.239354 0.269459 -3.506694 12.104941 1.702087 -0.785543 0.115850 2.052123 1.136260 0.000000 0.000000 0.000000 26.962023 1.219430 -0.750651 -23.265127 -5.324542 6.096550 -17.918330 5.585053 -6.939832 0.000000 0.000000 0.000000 26.022367 2.338753 -0.292750 3.900916 -2.309093 7.236420 5.684228 -18.864907 -5.147174 -35.365534 -45.437342 -34.038726 1.827186 -45.787283 3.265273 0.000000 0.000000 0.000000 25.112910 1.037345 -0.076041 -2.594744 33.878681 11.782119 7.719724 9.483396 4.341004 -51.888015 22.108656 26.962315 2.557927 38.225451 -4.405284 0.000000 0.000000 0.000000 
5.654381 98.679497 -12.850857 0.000000 0.000000 0.000000 41.159956 1.203060 -1.512638 -83.997421 4.933330 17.300058 37.998026 11.594941 -2.735195 6.029531 15.011794 -7.730536 1.878195 0.910224 -1.356746 0.000000 0.000000 0.000000 41.170072 1.617543 -0.028191 -52.374710 11.907491 -8.525246 66.753433 4.679425 -4.208747 5.673373 -0.690281 8.407740 -9.352486 0.516087 0.144450 0.000000 0.000000 0.000000 44.372659 -5.225901 2.271284 12.819362 0.028232 -3.627131 12.160456 1.683354 -0.583818 0.015525 2.092465 1.080875 0.000000 0.000000 0.000000 26.889137 1.174100 -0.550567 -22.470187 -5.082577 6.065287 -17.067492 6.340816 -6.286085 0.000000 0.000000 0.000000 25.812969 2.242787 -0.112028 3.923273 -1.752313 5.818192 4.585484 -19.093678 -4.637222 -33.562047 -44.165257 -35.332709 1.485569 -45.588364 2.718769 0.000000 0.000000 0.000000 24.992538 1.016656 0.055708 -2.677696 33.040572 12.326703 8.249006 9.318197 5.199047 -49.972427 21.767722 29.470142 2.629979 36.687828 -4.984838 0.000000 0.000000 0.000000 
5.589846 99.998703 -11.858829 0.000000 0.000000 0.000000 37.651271 -1.212604 0.063303 -78.936428 5.665586 16.246513 35.239282 12.050761 -2.708197 6.383294 15.332467 -8.505489 1.721278 0.954558 -1.304715 0.000000 0.000000 0.000000 37.392851 -0.978911 1.603916 -55.560317 12.129362 -8.699586 67.739856 4.016802 -4.025664 3.142941 -1.011281 7.152063 -9.537933 0.208304 0.495767 0.000000 0.000000 0.000000 40.493053 -7.374895 3.229228 13.206553 -0.134363 -3.694804 12.125981 1.721088 -0.376611 -0.125292 2.071788 1.076863 0.000000 0.000000 0.000000 26.756265 1.207105 -0.396593 -21.588635 -4.802557 5.910325 -16.260607 6.931812 -5.761786 0.000000 0.000000 0.000000 25.526083 2.228467 0.067934 3.929954 -1.213080 4.383244 3.403188 -18.922744 -4.226066 -31.897277 -42.755782 -36.880737 1.092052 -44.631772 2.114263 0.000000 0.000000 0.000000 24.791548 1.077670 0.178524 -2.639833 32.051185 12.652335 8.733937 8.834435 5.837960 -48.069119 21.328900 31.599908 2.550541 34.939819 -5.403004 0.000000 0.000000 0.000000 
5.478382 101.389091 -10.681660 0.000000 0.000000 0.000000 34.200902 -3.656161 1.076426 -73.901882 6.632276 15.739329 32.536101 12.440752 -2.654172 6.608769 15.387849 -9.073461 1.618291 1.004130 -1.219256 0.000000 0.000000 0.000000 33.797630 -3.780213 2.692134 -57.362572 11.752808 -8.931560 65.716160 3.379303 -3.744655 1.102372 -1.145020 6.481934 -9.416175 0.009749 0.898555 0.000000 0.000000 0.000000 36.798344 -9.502148 3.745208 13.430192 -0.175062 -3.657770 12.028713 1.820329 -0.152431 -0.148353 2.029977 1.124834 0.000000 0.000000 0.000000 26.548778 1.304279 -0.255138 -20.707481 -4.512974 5.675277 -15.399423 7.395030 -5.368878 0.000000 0.000000 0.000000 25.161773 2.283687 0.269454 3.930248 -0.712349 3.038132 2.432910 -18.569616 -3.907513 -30.385521 -41.349152 -38.620441 0.812789 -43.209662 1.600316 0.000000 0.000000 0.000000 24.503848 1.207786 0.314394 -2.496567 30.952290 12.784025 9.134191 8.077038 6.382746 -46.115627 20.679048 33.213547 2.358190 33.305218 -5.675245 0.000000 0.000000 0.000000 
5.350888 102.842865 -9.419331 0.000000 0.000000 0.000000 30.912992 -5.959061 1.421336 -68.968539 7.763074 15.718815 29.859456 12.763644 -2.500398 6.744303 15.268604 -9.453150 1.676118 1.065986 -1.151681 0.000000 0.000000 0.000000 30.399581 -6.381482 3.038965 -57.625937 10.838742 -9.098167 61.256032 2.634566 -3.426729 -0.812248 -1.200319 5.914566 -8.694094 -0.003221 1.239034 0.000000 0.000000 0.000000 33.332822 -11.366655 3.749367 13.533507 -0.105405 -3.478947 11.889520 1.950774 0.087711 -0.173843 1.964843 1.227329 0.000000 0.000000 0.000000 26.242026 1.420771 -0.107871 -19.920931 -4.214381 5.407202 -14.359180 7.736865 -5.092111 0.000000 0.000000 0.000000 24.715400 2.363985 0.493350 3.928593 -0.340366 1.850587 1.531038 -18.054377 -3.706545 -28.979946 -40.083925 -40.431984 0.741701 -41.601709 1.269819 0.000000 0.000000 0.000000 24.127046 1.368521 0.472383 -2.281809 29.775076 12.788447 9.633132 7.101504 6.839722 -44.235392 19.716874 34.416107 2.064256 32.055895 -5.826591 0.000000 0.000000 0.000000 
5.147543 104.360924 -8.121433 0.000000 0.000000 0.000000 27.784479 -7.913470 1.164650 -64.090158 8.931784 15.930913 27.228064 12.913175 -2.173384 6.869192 14.946180 -9.873106 1.785854 1.143282 -1.106208 0.000000 0.000000 0.000000 27.175272 -8.489765 2.764935 -56.734270 9.614586 -9.145425 55.315288 1.868842 -3.218790 -2.196449 -1.229503 5.840003 -7.942795 0.127207 1.416106 0.000000 0.000000 0.000000 30.030624 -12.821247 3.284059 13.556479 0.015509 -3.185469 11.733238 2.062974 0.323765 -0.195789 1.936715 1.274446 0.000000 0.000000 0.000000 25.855184 1.505549 0.042366 -19.300448 -3.884081 5.160599 -13.057271 8.021868 -4.881801 0.000000 0.000000 0.000000 24.221108 2.408764 0.729620 3.925545 -0.141844 0.878790 0.745808 -17.430368 -3.631016 -27.633274 -38.980293 -42.152608 0.881617 -39.970813 1.133564 0.000000 0.000000 0.000000 23.674247 1.497990 0.646962 -2.023563 28.542913 12.666751 10.247662 6.190842 7.328061 -42.546857 18.450960 35.349709 1.716511 31.241914 -5.896410 0.000000 0.000000 0.000000 
